{
  "accessors": [
    {
      "bufferView": 2,
      "componentType": 5126,
      "count": 2598,
      "max": [
        1.2740112543106079,
        1.2002081871032715,
        0.74631989002227783
      ],
      "min": [
        -1.2740111351013184,
        0.038267645984888077,
        -0.023494753986597061
      ],
      "type": "VEC3"
    },
    {
      "bufferView": 2,
      "byteOffset": 31176,
      "componentType": 5126,
      "count": 2598,
      "max": [
        1,
        1,
        1
      ],
      "min": [
        -1,
        -1,
        -1
      ],
      "type": "VEC3"
    },
    {
      "bufferView": 1,
      "componentType": 5126,
      "count": 2598,
      "max": [
        0.99654960632324219,
        0.75330901145935059
      ],
      "min": [
        0.41327843070030212,
        0.20026887953281403
      ],
      "type": "VEC2"
    },
    {
      "bufferView": 0,
      "componentType": 5125,
      "count": 12900,
      "max": [
        2597
      ],
      "min": [
        0
      ],
      "type": "SCALAR"
    },
    {
      "bufferView": 2,
      "byteOffset": 62352,
      "componentType": 5126,
      "count": 1538,
      "max": [
        1.2309999465942383,
        1.2092804908752441,
        1.2095272541046143
      ],
      "min": [
        -1.2309999465942383,
        -1.0098412036895752,
        -0.43397238850593567
      ],
      "type": "VEC3"
    },
    {
      "bufferView": 2,
      "byteOffset": 80808,
      "componentType": 5126,
      "count": 1538,
      "max": [
        1,
        1,
        1
      ],
      "min": [
        -1,
        -1,
        -1
      ],
      "type": "VEC3"
    },
    {
      "bufferView": 1,
      "byteOffset": 20784,
      "componentType": 5126,
      "count": 1538,
      "max": [
        0.98536640405654907,
        0.99692857265472412
      ],
      "min": [
        0.02594640851020813,
        0.0084915459156036377
      ],
      "type": "VEC2"
    },
    {
      "bufferView": 0,
      "byteOffset": 51600,
      "componentType": 5125,
      "count": 5514,
      "max": [
        1537
      ],
      "min": [
        0
      ],
      "type": "SCALAR"
    },
    {
      "bufferView": 2,
      "byteOffset": 99264,
      "componentType": 5126,
      "count": 1417,
      "max": [
        1.3566596508026123,
        1.1926590204238892,
        2.1293396949768066
      ],
      "min": [
        -1.3566596508026123,
        -0.48307371139526367,
        -0.23143883049488068
      ],
      "type": "VEC3"
    },
    {
      "bufferView": 2,
      "byteOffset": 116268,
      "componentType": 5126,
      "count": 1417,
      "max": [
        1,
        1,
        1
      ],
      "min": [
        -1,
        -1,
        -0.99990755319595337
      ],
      "type": "VEC3"
    },
    {
      "bufferView": 1,
      "byteOffset": 33088,
      "componentType": 5126,
      "count": 1417,
      "max": [
        0.95137166976928711,
        0.99503171443939209
      ],
      "min": [
        0.11340576410293579,
        0.056666851043701172
      ],
      "type": "VEC2"
    },
    {
      "bufferView": 0,
      "byteOffset": 73656,
      "componentType": 5125,
      "count": 3036,
      "max": [
        1416
      ],
      "min": [
        0
      ],
      "type": "SCALAR"
    },
    {
      "bufferView": 2,
      "byteOffset": 133272,
      "componentType": 5126,
      "count": 780,
      "max": [
        1.1694543361663818,
        1.2285158634185791,
        1.3032009601593018
      ],
      "min": [
        -1.1694543361663818,
        -1.3528914451599121,
        -0.054276540875434875
      ],
      "type": "VEC3"
    },
    {
      "bufferView": 2,
      "byteOffset": 142632,
      "componentType": 5126,
      "count": 780,
      "max": [
        0.99529588222503662,
        0.99455791711807251,
        0.99230003356933594
      ],
      "min": [
        -0.9952959418296814,
        -0.99807101488113403,
        -0.99285030364990234
      ],
      "type": "VEC3"
    },
    {
      "bufferView": 1,
      "byteOffset": 44424,
      "componentType": 5126,
      "count": 780,
      "max": [
        0.98827916383743286,
        0.99486839771270752
      ],
      "min": [
        0.004940330982208252,
        0.20195677876472473
      ],
      "type": "VEC2"
    },
    {
      "bufferView": 0,
      "byteOffset": 85800,
      "componentType": 5125,
      "count": 2340,
      "max": [
        779
      ],
      "min": [
        0
      ],
      "type": "SCALAR"
    },
    {
      "bufferView": 2,
      "byteOffset": 151992,
      "componentType": 5126,
      "count": 1458,
      "max": [
        1.3517522811889648,
        1.2249938249588013,
        1.6379411220550537
      ],
      "min": [
        -1.351752758026123,
        -1.7928476333618164,
        -0.34003841876983643
      ],
      "type": "VEC3"
    },
    {
      "bufferView": 2,
      "byteOffset": 169488,
      "componentType": 5126,
      "count": 1458,
      "max": [
        0.99998992681503296,
        1,
        0.97792279720306396
      ],
      "min": [
        -0.99998992681503296,
        -1,
        -0.99073916673660278
      ],
      "type": "VEC3"
    },
    {
      "bufferView": 1,
      "byteOffset": 50664,
      "componentType": 5126,
      "count": 1458,
      "max": [
        0.95153844356536865,
        0.96046340465545654
      ],
      "min": [
        0.097356840968132019,
        0.0089128315448760986
      ],
      "type": "VEC2"
    },
    {
      "bufferView": 0,
      "byteOffset": 95160,
      "componentType": 5125,
      "count": 4026,
      "max": [
        1457
      ],
      "min": [
        0
      ],
      "type": "SCALAR"
    },
    {
      "bufferView": 2,
      "byteOffset": 186984,
      "componentType": 5126,
      "count": 154,
      "max": [
        1.1093939542770386,
        0.67392486333847046,
        1.232086181640625
      ],
      "min": [
        -1.1093940734863281,
        -0.88948577642440796,
        -0.054276540875434875
      ],
      "type": "VEC3"
    },
    {
      "bufferView": 2,
      "byteOffset": 188832,
      "componentType": 5126,
      "count": 154,
      "max": [
        0.99529582262039185,
        0.47859689593315125,
        0.99230003356933594
      ],
      "min": [
        -0.99529588222503662,
        -0.47172540426254272,
        -0.99285030364990234
      ],
      "type": "VEC3"
    },
    {
      "bufferView": 1,
      "byteOffset": 62328,
      "componentType": 5126,
      "count": 154,
      "max": [
        0.98827916383743286,
        0.99692857265472412
      ],
      "min": [
        0.096072971820831299,
        0.61037528514862061
      ],
      "type": "VEC2"
    },
    {
      "bufferView": 0,
      "byteOffset": 111264,
      "componentType": 5125,
      "count": 438,
      "max": [
        153
      ],
      "min": [
        0
      ],
      "type": "SCALAR"
    },
    {
      "bufferView": 2,
      "byteOffset": 190680,
      "componentType": 5126,
      "count": 82,
      "max": [
        1.0518097877502441,
        1.1636252403259277,
        0.59321606159210205
      ],
      "min": [
        -1.051809549331665,
        -1.2504911422729492,
        0.24826669692993164
      ],
      "type": "VEC3"
    },
    {
      "bufferView": 2,
      "byteOffset": 191664,
      "componentType": 5126,
      "count": 82,
      "max": [
        0.76374989748001099,
        0.93604409694671631,
        0.075083263218402863
      ],
      "min": [
        -0.76375436782836914,
        -0.93380439281463623,
        -0.74084341526031494
      ],
      "type": "VEC3"
    },
    {
      "bufferView": 1,
      "byteOffset": 63560,
      "componentType": 5126,
      "count": 82,
      "max": [
        0.95137166976928711,
        0.97791898250579834
      ],
      "min": [
        0.80359536409378052,
        0.41533765196800232
      ],
      "type": "VEC2"
    },
    {
      "bufferView": 0,
      "byteOffset": 113016,
      "componentType": 5125,
      "count": 126,
      "max": [
        81
      ],
      "min": [
        0
      ],
      "type": "SCALAR"
    },
    {
      "bufferView": 2,
      "byteOffset": 192648,
      "componentType": 5126,
      "count": 8,
      "max": [
        0.072994820773601532,
        1.1535707712173462,
        0.72673743963241577
      ],
      "min": [
        -0.072994858026504517,
        0.88557308912277222,
        0.54410344362258911
      ],
      "type": "VEC3"
    },
    {
      "bufferView": 2,
      "byteOffset": 192744,
      "componentType": 5126,
      "count": 8,
      "max": [
        0.13347457349300385,
        0.55518680810928345,
        0.82094591856002808
      ],
      "min": [
        -0.13347522914409637,
        0.55518674850463867,
        0.8209458589553833
      ],
      "type": "VEC3"
    },
    {
      "bufferView": 1,
      "byteOffset": 64216,
      "componentType": 5126,
      "count": 8,
      "max": [
        0.071947813034057617,
        0.7161223292350769
      ],
      "min": [
        0.020651698112487793,
        0.25376200675964355
      ],
      "type": "VEC2"
    },
    {
      "bufferView": 0,
      "byteOffset": 113520,
      "componentType": 5125,
      "count": 12,
      "max": [
        7
      ],
      "min": [
        0
      ],
      "type": "SCALAR"
    },
    {
      "bufferView": 2,
      "byteOffset": 192840,
      "componentType": 5126,
      "count": 248,
      "max": [
        0.090196684002876282,
        1.2557659149169922,
        0.52423161268234253
      ],
      "min": [
        -0.090196684002876282,
        1.1816475391387939,
        0.31414574384689331
      ],
      "type": "VEC3"
    },
    {
      "bufferView": 2,
      "byteOffset": 195816,
      "componentType": 5126,
      "count": 248,
      "max": [
        0.96332466602325439,
        1,
        0.94477903842926025
      ],
      "min": [
        -0.96332466602325439,
        -1,
        -0.85045230388641357
      ],
      "type": "VEC3"
    },
    {
      "bufferView": 1,
      "byteOffset": 64280,
      "componentType": 5126,
      "count": 248,
      "max": [
        0.49073415994644165,
        0.56209349632263184
      ],
      "min": [
        0.41614744067192078,
        0.50715178251266479
      ],
      "type": "VEC2"
    },
    {
      "bufferView": 0,
      "byteOffset": 113568,
      "componentType": 5125,
      "count": 528,
      "max": [
        247
      ],
      "min": [
        0
      ],
      "type": "SCALAR"
    }
  ],
  "asset": {
    "extras": {
      "author": "wewwuworks (https://sketchfab.com/Ensign_Crusher)",
      "license": "CC-BY-4.0 (http://creativecommons.org/licenses/by/4.0/)",
      "source": "https://sketchfab.com/3d-models/z-3-jetpack-f63cc7acceb34ec88e8c78c1a883cbb7",
      "title": "Z-3 Jetpack"
    },
    "generator": "Sketchfab-7.54.0",
    "version": "2.0"
  },
  "bufferViews": [
    {
      "buffer": 0,
      "byteLength": 115680,
      "byteOffset": 0,
      "name": "floatBufferViews",
      "target": 34963
    },
    {
      "buffer": 0,
      "byteLength": 66264,
      "byteOffset": 115680,
      "byteStride": 8,
      "name": "floatBufferViews",
      "target": 34962
    },
    {
      "buffer": 0,
      "byteLength": 198792,
      "byteOffset": 181944,
      "byteStride": 12,
      "name": "floatBufferViews",
      "target": 34962
    }
  ],
  "buffers": [
    {
      "byteLength": 380736,
      "uri": "scene.bin"
    }
  ],
  "materials": [
    {
      "doubleSided": true,
      "emissiveFactor": [
        0,
        0,
        0
      ],
      "name": "Wires",
      "pbrMetallicRoughness": {
        "baseColorFactor": [
          1,
          0.94340000000000002,
          0.7843,
          1
        ],
        "metallicFactor": 0,
        "roughnessFactor": 0.59999999999999998
      }
    },
    {
      "doubleSided": true,
      "emissiveFactor": [
        0,
        0,
        0
      ],
      "name": "Black",
      "pbrMetallicRoughness": {
        "baseColorFactor": [
          0.026700000000000002,
          0.026700000000000002,
          0.026700000000000002,
          1
        ],
        "metallicFactor": 0,
        "roughnessFactor": 0.59999999999999998
      }
    },
    {
      "doubleSided": true,
      "emissiveFactor": [
        0,
        0,
        0
      ],
      "name": "Maroon",
      "pbrMetallicRoughness": {
        "baseColorFactor": [
          0.25430000000000003,
          0,
          0,
          1
        ],
        "metallicFactor": 0,
        "roughnessFactor": 0.59999999999999998
      }
    },
    {
      "doubleSided": true,
      "emissiveFactor": [
        0,
        0,
        0
      ],
      "name": "Grey",
      "pbrMetallicRoughness": {
        "baseColorFactor": [
          0.20710000000000001,
          0.20710000000000001,
          0.20710000000000001,
          1
        ],
        "metallicFactor": 0,
        "roughnessFactor": 0.59999999999999998
      }
    },
    {
      "doubleSided": true,
      "emissiveFactor": [
        0,
        0,
        0
      ],
      "name": "Silver",
      "pbrMetallicRoughness": {
        "baseColorFactor": [
          0.52447600000000005,
          0.52447600000000005,
          0.52447600000000005,
          1
        ],
        "metallicFactor": 0,
        "roughnessFactor": 0.59999999999999998
      }
    },
    {
      "doubleSided": true,
      "emissiveFactor": [
        0,
        0,
        0
      ],
      "name": "Orange",
      "pbrMetallicRoughness": {
        "baseColorFactor": [
          1,
          0.3135,
          0,
          1
        ],
        "metallicFactor": 0,
        "roughnessFactor": 0.59999999999999998
      }
    },
    {
      "doubleSided": true,
      "emissiveFactor": [
        0,
        0,
        0
      ],
      "name": "lambert1",
      "pbrMetallicRoughness": {
        "baseColorFactor": [
          0.54000000000000004,
          0.54000000000000004,
          0.54000000000000004,
          1
        ],
        "metallicFactor": 0,
        "roughnessFactor": 0.59999999999999998
      }
    },
    {
      "doubleSided": true,
      "emissiveFactor": [
        0,
        0,
        0
      ],
      "name": "Lights",
      "pbrMetallicRoughness": {
        "baseColorFactor": [
          1,
          0.35680000000000001,
          0,
          1
        ],
        "metallicFactor": 0,
        "roughnessFactor": 0.92074838162494832
      }
    },
    {
      "doubleSided": true,
      "emissiveFactor": [
        0,
        0,
        0
      ],
      "name": "Knob_Plastic",
      "pbrMetallicRoughness": {
        "baseColorFactor": [
          0.038399999999999997,
          0.038399999999999997,
          0.038399999999999997,
          1
        ],
        "metallicFactor": 0,
        "roughnessFactor": 0.59999999999999998
      }
    }
  ],
  "meshes": [
    {
      "name": "pTorus8_Wires_0",
      "primitives": [
        {
          "attributes": {
            "NORMAL": 1,
            "POSITION": 0,
            "TEXCOORD_0": 2
          },
          "indices": 3,
          "material": 0,
          "mode": 4
        }
      ]
    },
    {
      "name": "pTorus8_Black_0",
      "primitives": [
        {
          "attributes": {
            "NORMAL": 5,
            "POSITION": 4,
            "TEXCOORD_0": 6
          },
          "indices": 7,
          "material": 1,
          "mode": 4
        }
      ]
    },
    {
      "name": "pTorus8_Maroon_0",
      "primitives": [
        {
          "attributes": {
            "NORMAL": 9,
            "POSITION": 8,
            "TEXCOORD_0": 10
          },
          "indices": 11,
          "material": 2,
          "mode": 4
        }
      ]
    },
    {
      "name": "pTorus8_Grey_0",
      "primitives": [
        {
          "attributes": {
            "NORMAL": 13,
            "POSITION": 12,
            "TEXCOORD_0": 14
          },
          "indices": 15,
          "material": 3,
          "mode": 4
        }
      ]
    },
    {
      "name": "pTorus8_Silver_0",
      "primitives": [
        {
          "attributes": {
            "NORMAL": 17,
            "POSITION": 16,
            "TEXCOORD_0": 18
          },
          "indices": 19,
          "material": 4,
          "mode": 4
        }
      ]
    },
    {
      "name": "pTorus8_Orange_0",
      "primitives": [
        {
          "attributes": {
            "NORMAL": 21,
            "POSITION": 20,
            "TEXCOORD_0": 22
          },
          "indices": 23,
          "material": 5,
          "mode": 4
        }
      ]
    },
    {
      "name": "pTorus8_lambert1_0",
      "primitives": [
        {
          "attributes": {
            "NORMAL": 25,
            "POSITION": 24,
            "TEXCOORD_0": 26
          },
          "indices": 27,
          "material": 6,
          "mode": 4
        }
      ]
    },
    {
      "name": "pTorus8_Lights_0",
      "primitives": [
        {
          "attributes": {
            "NORMAL": 29,
            "POSITION": 28,
            "TEXCOORD_0": 30
          },
          "indices": 31,
          "material": 7,
          "mode": 4
        }
      ]
    },
    {
      "name": "pTorus8_Knob_Plastic_0",
      "primitives": [
        {
          "attributes": {
            "NORMAL": 33,
            "POSITION": 32,
            "TEXCOORD_0": 34
          },
          "indices": 35,
          "material": 8,
          "mode": 4
        }
      ]
    }
  ],
  "nodes": [
    {
      "children": [
        1
      ],
      "name": "RootNode (gltf orientation matrix)",
      "rotation": [
        -0.70710678118654746,
        -0,
        -0,
        0.70710678118654757
      ]
    },
    {
      "children": [
        2
      ],
      "name": "RootNode (model correction matrix)"
    },
    {
      "children": [
        3
      ],
      "matrix": [
        1,
        0,
        0,
        0,
        0,
        0,
        1,
        0,
        0,
        -1,
        0,
        0,
        0,
        0,
        0,
        1
      ],
      "name": "569f63ae2071460ea6f83c3fbf7c03fd.fbx"
    },
    {
      "children": [
        4
      ],
      "name": "RootNode"
    },
    {
      "children": [
        5,
        6,
        7,
        8,
        9,
        10,
        11,
        12,
        13
      ],
      "name": "pTorus8"
    },
    {
      "mesh": 0,
      "name": "pTorus8_Wires_0"
    },
    {
      "mesh": 1,
      "name": "pTorus8_Black_0"
    },
    {
      "mesh": 2,
      "name": "pTorus8_Maroon_0"
    },
    {
      "mesh": 3,
      "name": "pTorus8_Grey_0"
    },
    {
      "mesh": 4,
      "name": "pTorus8_Silver_0"
    },
    {
      "mesh": 5,
      "name": "pTorus8_Orange_0"
    },
    {
      "mesh": 6,
      "name": "pTorus8_lambert1_0"
    },
    {
      "mesh": 7,
      "name": "pTorus8_Lights_0"
    },
    {
      "mesh": 8,
      "name": "pTorus8_Knob_Plastic_0"
    }
  ],
  "scene": 0,
  "scenes": [
    {
      "name": "OSG_Scene",
      "nodes": [
        0
      ]
    }
  ]
}

